<?xml version="1.0" encoding="UTF-8" standalone="no"?>
<!-- Created with Inkscape (http://www.inkscape.org/) -->

<svg
   xmlns:dc="http://purl.org/dc/elements/1.1/"
   xmlns:cc="http://creativecommons.org/ns#"
   xmlns:rdf="http://www.w3.org/1999/02/22-rdf-syntax-ns#"
   xmlns:svg="http://www.w3.org/2000/svg"
   xmlns="http://www.w3.org/2000/svg"
   xmlns:sodipodi="http://sodipodi.sourceforge.net/DTD/sodipodi-0.dtd"
   xmlns:inkscape="http://www.inkscape.org/namespaces/inkscape"
   width="16px"
   height="16px"
   id="svg3133"
   version="1.1"
   inkscape:version="0.48.3.1 r9886"
   sodipodi:docname="lapiz.svg">
  <defs
     id="defs3135" />
  <sodipodi:namedview
     id="base"
     pagecolor="#ffffff"
     bordercolor="#666666"
     borderopacity="1.0"
     inkscape:pageopacity="0.0"
     inkscape:pageshadow="2"
     inkscape:zoom="22.197802"
     inkscape:cx="8"
     inkscape:cy="8"
     inkscape:current-layer="layer1"
     showgrid="true"
     inkscape:grid-bbox="true"
     inkscape:document-units="px"
     inkscape:window-width="1600"
     inkscape:window-height="876"
     inkscape:window-x="0"
     inkscape:window-y="24"
     inkscape:window-maximized="1" />
  <metadata
     id="metadata3138">
    <rdf:RDF>
      <cc:Work
         rdf:about="">
        <dc:format>image/svg+xml</dc:format>
        <dc:type
           rdf:resource="http://purl.org/dc/dcmitype/StillImage" />
      </cc:Work>
    </rdf:RDF>
  </metadata>
  <g
     id="layer1"
     inkscape:label="Layer 1"
     inkscape:groupmode="layer">
    <g
       id="g3072"
       transform="matrix(0.15786746,0,0,0.15572167,0.09996054,0.11871617)">
      <path
         id="path3062"
         d="m 4.744,4.743 c -6.325,6.325 -6.325,16.578 0,22.903 L 27.646,4.743 c -6.324,-6.325 -16.578,-6.325 -22.902,0 z"
         inkscape:connector-curvature="0" />
      <path
         id="path3064"
         d="M 60.893,83.794 100,100 83.795,60.893 33.914,11.013 11.012,33.914 60.893,83.794 z m 5.212,-10.148 c 2.082,-2.084 6.023,-1.517 6.893,-0.647 -0.868,-0.868 -1.436,-4.812 0.646,-6.894 2.082,-2.082 6.242,-2.822 6.242,-2.822 l 9.312,22.47 -3.446,3.446 -22.47,-9.311 c 0,10e-4 0.741,-4.159 2.823,-6.242 z"
         inkscape:connector-curvature="0" />
    </g>
  </g>
</svg>
